<?xml version="1.0" standalone="no"?><!DOCTYPE svg PUBLIC "-//W3C//DTD SVG 1.1//EN" "http://www.w3.org/Graphics/SVG/1.1/DTD/svg11.dtd"><svg class="icon" height="512" viewBox="0 0 1024 1024" version="1.1" xmlns="http://www.w3.org/2000/svg"><path d="M297.08288 601.45664c0 7.04512 5.7344 12.77952 12.77952 12.77952h383.30368a12.77952 12.77952 0 1 0 0-25.55904H309.8624a12.77952 12.77952 0 0 0-12.77952 12.77952zM693.16608 665.31328H309.8624a12.77952 12.77952 0 1 0 0 25.55904h383.30368a12.77952 12.77952 0 1 0 0-25.55904zM220.40576 588.67712H169.32864a25.55904 25.55904 0 0 0-25.55904 25.55904v51.07712c0 14.1312 11.42784 25.55904 25.55904 25.55904H220.3648c14.1312 0 25.55904-11.4688 25.55904-25.55904v-51.07712a25.55904 25.55904 0 0 0-25.55904-25.55904zM309.8624 435.32288h204.43136a12.77952 12.77952 0 1 0 0-25.55904H309.8624a12.77952 12.77952 0 1 0 0 25.55904zM309.8624 512h204.43136a12.77952 12.77952 0 1 0 0-25.55904H309.8624a12.77952 12.77952 0 1 0 0 25.55904zM220.40576 409.76384H169.32864a25.55904 25.55904 0 0 0-25.55904 25.55904v51.11808c0 14.1312 11.42784 25.55904 25.55904 25.55904H220.3648c14.1312 0 25.55904-11.4688 25.55904-25.55904v-51.11808a25.55904 25.55904 0 0 0-25.55904-25.55904zM514.29376 767.54944H309.8624a12.77952 12.77952 0 1 0 0 25.55904h204.43136a12.77952 12.77952 0 1 0 0-25.55904zM514.29376 844.1856H309.8624a12.77952 12.77952 0 1 0 0 25.55904h204.43136a12.77952 12.77952 0 1 0 0-25.51808zM220.40576 767.54944H169.32864a25.55904 25.55904 0 0 0-25.55904 25.55904v51.11808c0 14.09024 11.42784 25.51808 25.55904 25.51808H220.3648c14.1312 0 25.55904-11.42784 25.55904-25.51808v-51.11808a25.55904 25.55904 0 0 0-25.55904-25.55904zM309.8624 256.45056h204.43136a12.77952 12.77952 0 1 0 0-25.55904H309.8624a12.77952 12.77952 0 1 0 0 25.55904zM309.8624 333.12768h204.43136a12.77952 12.77952 0 1 0 0-25.55904H309.8624a12.77952 12.77952 0 1 0 0 25.55904zM220.40576 230.89152H169.32864a25.55904 25.55904 0 0 0-25.55904 25.55904V307.6096c0 14.09024 11.42784 25.55904 25.55904 25.55904H220.3648c14.1312 0 25.55904-11.4688 25.55904-25.55904V256.4096a25.55904 25.55904 0 0 0-25.55904-25.55904zM808.1408 159.5392V103.13728a25.55904 25.55904 0 0 0-25.51808-25.55904h-229.9904V52.0192a25.55904 25.55904 0 0 0-25.55904-25.55904h-25.55904a25.55904 25.55904 0 0 0-25.55904-25.55904H373.76A25.55904 25.55904 0 0 0 348.16 26.46016h-25.55904a25.55904 25.55904 0 0 0-25.55904 25.55904v25.55904H67.09248a25.55904 25.55904 0 0 0-25.55904 25.55904v894.40256c0 14.09024 11.4688 25.55904 25.55904 25.55904h715.48928c14.17216 0 25.6-11.4688 25.6-25.55904v-465.3056a191.488 191.488 0 0 0 147.78368-186.368 191.488 191.488 0 0 0-147.78368-186.32704z m-43.8272 378.01984v255.54944h-135.00416c-28.09856 0-51.11808 22.97856-51.11808 51.11808v127.75424H118.21056a25.6 25.6 0 0 1-25.55904-25.55904V154.25536c0-14.09024 11.4688-25.55904 25.55904-25.55904h178.87232c0 14.09024 11.42784 25.55904 25.55904 25.55904h204.43136c14.1312 0 25.55904-11.4688 25.55904-25.55904h186.12224c14.04928 0 25.55904 11.4688 25.55904 25.55904a191.65184 191.65184 0 1 0 0 383.30368zM603.7504 971.9808v-127.7952c0-14.04928 11.4688-25.51808 25.55904-25.51808h117.1456l16.54784 0.36864-159.25248 152.94464zM450.39616 26.46016c14.1312 0 25.55904 11.4688 25.55904 25.55904H373.76c0-14.1312 11.42784-25.55904 25.55904-25.55904h51.07712z m357.7856 362.00448L764.3136 460.3904l-17.73568 29.0816-102.8096-105.34912 36.61824-35.6352 56.77056 58.1632 27.15648-44.4416 43.8272-71.96672 36.57728-59.92448 43.6224 26.624-80.15872 131.4816z" /></svg>